<?xml version="1.0" encoding="utf-8" ?>
<svg baseProfile="full" height="512px" version="1.1" width="512px" xmlns="http://www.w3.org/2000/svg" xmlns:ev="http://www.w3.org/2001/xml-events" xmlns:xlink="http://www.w3.org/1999/xlink"><defs /><polygon fill="black" points="153.3217391304348,55.9304347826087 150.2608695652174,58.434782608695656 147.2,67.3391304347826 147.2,93.77391304347826 144.41739130434783,107.1304347826087 140.8,116.03478260869565 133.28695652173914,129.94782608695652 120.76521739130435,142.4695652173913 117.70434782608696,144.1391304347826 85.98260869565217,153.87826086956522 78.74782608695652,157.49565217391304 75.40869565217392,157.49565217391304 71.51304347826087,160.27826086956523 71.51304347826087,162.22608695652175 75.1304347826087,165.0086956521739 79.02608695652174,173.91304347826087 85.42608695652174,181.42608695652174 88.20869565217392,189.21739130434784 94.05217391304348,199.7913043478261 98.22608695652174,203.96521739130435 100.45217391304348,202.57391304347826 104.62608695652175,212.31304347826088 108.8,217.6 111.02608695652174,224.0 109.91304347826087,225.6695652173913 110.74782608695652,230.4 112.97391304347826,234.8521739130435 116.59130434782608,237.0782608695652 116.59130434782608,238.19130434782608 118.26086956521739,239.8608695652174 118.26086956521739,241.80869565217392 119.9304347826087,243.75652173913045 120.20869565217392,247.9304347826087 121.04347826086956,248.20869565217393 121.32173913043478,250.7130434782609 122.99130434782609,253.77391304347827 127.72173913043478,272.4173913043478 131.33913043478262,279.6521739130435 132.17391304347825,284.38260869565215 134.12173913043478,288.83478260869566 139.68695652173912,314.9913043478261 141.0782608695652,329.18260869565216 141.91304347826087,330.0173913043478 142.74782608695654,337.5304347826087 144.41739130434783,341.9826086956522 144.69565217391303,349.2173913043478 145.5304347826087,350.0521739130435 147.47826086956522,366.74782608695654 148.31304347826088,367.5826086956522 148.31304347826088,374.2608695652174 149.42608695652174,378.9913043478261 149.42608695652174,384.0 150.2608695652174,385.39130434782606 150.2608695652174,390.4 151.09565217391304,390.95652173913044 151.65217391304347,394.0173913043478 151.09565217391304,395.68695652173915 151.9304347826087,395.96521739130435 153.04347826086956,399.02608695652174 156.66086956521738,416.83478260869566 157.49565217391304,476.6608695652174 155.82608695652175,494.74782608695654 155.82608695652175,503.9304347826087 154.15652173913043,507.54782608695655 154.15652173913043,510.60869565217394 155.54782608695652,512.0 157.49565217391304,512.0 160.55652173913043,510.88695652173914 163.0608695652174,507.82608695652175 167.7913043478261,494.1913043478261 168.62608695652173,486.67826086956524 171.40869565217392,481.39130434782606 172.52173913043478,473.6 174.19130434782608,469.4260869565218 176.1391304347826,451.61739130434785 182.81739130434784,428.24347826086955 182.81739130434784,424.90434782608696 183.65217391304347,424.3478260869565 183.65217391304347,420.4521739130435 184.48695652173913,419.61739130434785 185.6,411.82608695652175 187.54782608695652,407.09565217391304 188.38260869565218,401.8086956521739 190.3304347826087,398.74782608695654 191.16521739130434,391.23478260869564 192.0,390.4 192.27826086956523,377.32173913043476 193.11304347826086,375.9304347826087 193.11304347826086,341.9826086956522 193.94782608695652,341.1478260869565 194.22608695652175,281.04347826086956 192.83478260869566,223.16521739130434 191.16521739130434,205.35652173913044 191.16521739130434,190.3304347826087 190.3304347826087,189.77391304347827 190.3304347826087,167.23478260869567 188.38260869565218,163.61739130434782 187.54782608695652,155.82608695652175 183.65217391304347,148.59130434782608 179.75652173913045,125.21739130434783 177.2521739130435,119.9304347826087 177.2521739130435,116.03478260869565 176.1391304347826,114.08695652173913 176.1391304347826,111.8608695652174 175.30434782608697,111.30434782608695 175.30434782608697,108.24347826086957 172.52173913043478,97.94782608695652 170.57391304347826,94.33043478260869 169.18260869565216,85.42608695652174 166.6782608695652,80.41739130434783 166.6782608695652,76.24347826086957 165.0086956521739,69.56521739130434 163.0608695652174,66.78260869565217 163.0608695652174,63.165217391304346 159.7217391304348,57.04347826086956 158.05217391304348,55.9304347826087" /><polygon fill="black" points="54.26086956521739,0.5565217391304348 34.78260869565217,8.626086956521739 28.93913043478261,14.747826086956522 21.982608695652175,19.47826086956522 13.078260869565218,30.330434782608695 7.791304347826087,39.51304347826087 5.565217391304348,46.469565217391306 3.8956521739130436,48.417391304347824 1.6695652173913045,57.87826086956522 0.8347826086956522,58.71304347826087 0.0,64.55652173913043 0.0,77.91304347826087 0.8347826086956522,79.02608695652174 1.6695652173913045,85.14782608695653 2.782608695652174,86.81739130434782 2.782608695652174,89.6 8.347826086956522,101.56521739130434 16.973913043478262,115.75652173913043 23.930434782608696,122.99130434782609 30.330434782608695,127.16521739130435 35.61739130434783,129.11304347826086 40.904347826086955,132.45217391304348 42.85217391304348,132.45217391304348 44.52173913043478,133.84347826086957 43.40869565217391,135.51304347826087 46.19130434782609,137.4608695652174 67.3391304347826,139.40869565217392 82.08695652173913,138.57391304347826 83.2,137.4608695652174 84.86956521739131,137.4608695652174 96.83478260869565,132.45217391304348 112.97391304347826,122.43478260869566 124.10434782608696,110.74782608695652 126.60869565217392,106.57391304347826 133.84347826086957,98.22608695652174 134.12173913043478,96.27826086956522 136.62608695652173,92.6608695652174 137.73913043478262,85.98260869565217 139.68695652173912,80.69565217391305 139.68695652173912,59.54782608695652 138.8521739130435,54.81739130434783 126.33043478260869,28.104347826086958 119.65217391304348,20.869565217391305 111.02608695652174,15.582608695652175 103.51304347826087,9.460869565217392 86.81739130434782,1.9478260869565218 82.92173913043479,1.6695652173913045 81.80869565217391,0.8347826086956522 69.84347826086956,0.0" /><polygon fill="black" points="199.7913043478261,345.04347826086956 198.4,346.7130434782609 197.0086956521739,352.55652173913046 197.0086956521739,373.9826086956522 198.12173913043478,375.09565217391304 198.4,377.32173913043476 200.0695652173913,378.1565217391304 200.62608695652173,376.48695652173916 199.51304347826087,375.9304347826087 199.7913043478261,368.69565217391306 198.6782608695652,368.4173913043478 198.6782608695652,355.61739130434785 199.7913043478261,355.0608695652174 199.7913043478261,349.2173913043478 200.62608695652173,348.6608695652174 200.62608695652173,345.6" /><polygon fill="black" points="59.54782608695652,176.97391304347826 59.2695652173913,178.9217391304348 62.608695652173914,182.81739130434784 64.55652173913043,187.82608695652175 66.78260869565217,189.49565217391304 66.22608695652174,182.5391304347826" /></svg>